/* XPM */
static const char * icon_xpm[] = {
"16 16 3 1",
"  c None",
". c #3A6EA5",
"+ c #FFFFFF",
"................",
"....++++++......",
"...+....+.......",
"...+....+.......",
"...+....+.......",
"...+....+.......",
"...+....+.......",
"....++++++......",
"................",
".....+++++......",
"....+...+.......",
"....+...+.......",
"....+...+.......",
"....+...+.......",
".....+++++......",
"................"
};
